<svg id="visual" viewBox="0 0 1366 768" width="1366" height="768" xmlns="http://www.w3.org/2000/svg" xmlns:xlink="http://www.w3.org/1999/xlink" version="1.1"><g><g transform="translate(566 720)"><path d="M0 -83.6L72.4 -41.8L72.4 41.8L0 83.6L-72.4 41.8L-72.4 -41.8Z" stroke="#FF615A" fill="none" stroke-width="2"></path></g><g transform="translate(493 215)"><path d="M0 -57L49.4 -28.5L49.4 28.5L0 57L-49.4 28.5L-49.4 -28.5Z" stroke="#FF615A" fill="none" stroke-width="2"></path></g><g transform="translate(1116 489)"><path d="M0 -76L65.8 -38L65.8 38L0 76L-65.8 38L-65.8 -38Z" stroke="#FF615A" fill="none" stroke-width="2"></path></g><g transform="translate(257 642)"><path d="M0 -51L44.2 -25.5L44.2 25.5L0 51L-44.2 25.5L-44.2 -25.5Z" stroke="#FF615A" fill="none" stroke-width="2"></path></g><g transform="translate(861 61)"><path d="M0 -47L40.7 -23.5L40.7 23.5L0 47L-40.7 23.5L-40.7 -23.5Z" stroke="#FF615A" fill="none" stroke-width="2"></path></g><g transform="translate(715 181)"><path d="M0 -55L47.6 -27.5L47.6 27.5L0 55L-47.6 27.5L-47.6 -27.5Z" stroke="#FF615A" fill="none" stroke-width="2"></path></g><g transform="translate(987 705)"><path d="M0 -44L38.1 -22L38.1 22L0 44L-38.1 22L-38.1 -22Z" stroke="#FF615A" fill="none" stroke-width="2"></path></g><g transform="translate(40 391)"><path d="M0 -75L65 -37.5L65 37.5L0 75L-65 37.5L-65 -37.5Z" stroke="#FF615A" fill="none" stroke-width="2"></path></g><g transform="translate(1306 347)"><path d="M0 -48L41.6 -24L41.6 24L0 48L-41.6 24L-41.6 -24Z" stroke="#FF615A" fill="none" stroke-width="2"></path></g><g transform="translate(229 90)"><path d="M0 -74L64.1 -37L64.1 37L0 74L-64.1 37L-64.1 -37Z" stroke="#FF615A" fill="none" stroke-width="2"></path></g><g transform="translate(824 594)"><path d="M0 -44L38.1 -22L38.1 22L0 44L-38.1 22L-38.1 -22Z" stroke="#FF615A" fill="none" stroke-width="2"></path></g><g transform="translate(1252 93)"><path d="M0 -72L62.4 -36L62.4 36L0 72L-62.4 36L-62.4 -36Z" stroke="#FF615A" fill="none" stroke-width="2"></path></g></g></svg>